<svg xmlns="http://www.w3.org/2000/svg" width="1430" height="295" viewBox="0 0 1430 295">
  <defs>
    <style>
      .cls-1 {
        fill-rule: evenodd;
      }
    </style>
  </defs>
  <path id="Louis_Roméas" data-name="Louis Roméas" class="cls-1" d="M119.608,208.3h62q1.4-2.175,3.7-5.644t4.5-6.734q2.2-3.267,5.4-8.222h-54.8V89.5h-20.8V208.3Zm81-34.9a62.733,62.733,0,0,0,13.9,19.8,63.714,63.714,0,0,0,20.3,13,62.356,62.356,0,0,0,24.6,4.5,63.6,63.6,0,0,0,24.1-5,61.643,61.643,0,0,0,19.7-13.2,63.331,63.331,0,0,0,13.3-19.6,61.311,61.311,0,0,0,.1-47.8,62.342,62.342,0,0,0-13.3-19.7,64.2,64.2,0,0,0-20-13.5,61.81,61.81,0,0,0-24.9-5q-1.2,0-2.4.1c-0.8.069-1.6,0.1-2.4,0.1a63.953,63.953,0,0,0-22.6,6.1,63.005,63.005,0,0,0-31,32.5,58.063,58.063,0,0,0-4.6,23A59.22,59.22,0,0,0,200.607,173.4Zm18.9-41.1a42.37,42.37,0,0,1,9.1-13.6,44.493,44.493,0,0,1,13.4-9.2,39.716,39.716,0,0,1,16.4-3.4h2.6a40.358,40.358,0,0,1,15.8,4.3,43.25,43.25,0,0,1,12.5,9.6,45.185,45.185,0,0,1,8.3,13.3,40.115,40.115,0,0,1,3,15.2,40.581,40.581,0,0,1-3.5,16.8,47.919,47.919,0,0,1-9.3,13.8l-1.4,1.4a42.386,42.386,0,0,1-14.3,8.5,39.656,39.656,0,0,1-17.1,2.1,37.442,37.442,0,0,1-15.3-4,41.6,41.6,0,0,1-12.3-9.4,44.443,44.443,0,0,1-8.2-13.3A42.489,42.489,0,0,1,219.507,132.3Zm117.9,28.6a47.869,47.869,0,0,0,4,19.5,51.52,51.52,0,0,0,66.7,26.6,51.652,51.652,0,0,0,16.2-10.6,50.925,50.925,0,0,0,11-15.8,47.42,47.42,0,0,0,4.1-19.7V89.5h-20.8v71.26a28.141,28.141,0,0,1-2.4,11.578,30.024,30.024,0,0,1-6.5,9.381,30.4,30.4,0,0,1-9.6,6.287,31.363,31.363,0,0,1-23.8-.1,29.651,29.651,0,0,1-9.5-6.49,30.59,30.59,0,0,1-6.3-9.491,28.225,28.225,0,0,1-2.3-11.187V55.86q-2.6-3.8-5.5-8.191t-4.3-6.591q-2-2.794-4-5.794-1.6-2.4-3.5-5.294t-3.5-5.094v136Zm144.8,47.6V89.7h-20.8V208.5h20.8Zm48.3-54.8a18.92,18.92,0,0,0,2.9.2,20.513,20.513,0,0,1,13.4,4.575,14.882,14.882,0,0,1,5.6,12.125q0,7.954-5.7,12.428a20.921,20.921,0,0,1-13.3,4.472H519.8L506,208.1h27.4a47.467,47.467,0,0,0,15.5-2.5,37.682,37.682,0,0,0,12.7-7.2,33.924,33.924,0,0,0,8.5-11.3,34.4,34.4,0,0,0,3.1-14.8,39.289,39.289,0,0,0-2.8-14.9,35.57,35.57,0,0,0-7.8-11.9,35.158,35.158,0,0,0-12.1-7.8,42.5,42.5,0,0,0-15.7-2.8h-2.6a13.143,13.143,0,0,1-9.2-3.472q-3.8-3.468-3.8-10.018a10.05,10.05,0,0,1,3.8-8.235,14.156,14.156,0,0,1,9.2-3.075H549a9.1,9.1,0,0,1,1-1.819q1-1.612,2.6-3.837t3.3-4.844q1.7-2.625,3.3-4.85,1.8-2.625,3.4-5.25H532.2a48.829,48.829,0,0,0-9.4.9,35.161,35.161,0,0,0-8.7,2.9,27.392,27.392,0,0,0-7.4,5.3,26.909,26.909,0,0,0-5.5,8.3,34.025,34.025,0,0,0-2.8,13.8,32.3,32.3,0,0,0,3.2,14.1,33.092,33.092,0,0,0,9.7,11.8q6.5,5.1,16.5,6.7Q529.2,153.5,530.5,153.7Zm140.1,54.4V109.9h32.2a23.093,23.093,0,0,1,8.5,1.61,24.529,24.529,0,0,1,7.3,4.418,20.618,20.618,0,0,1,5.1,6.935,21.1,21.1,0,0,1,1.9,8.94,18.487,18.487,0,0,1-6.5,14.672q-6.5,5.625-16.3,5.625H690.6q4.8,10.6,8.5,18.8t7.1,15.6q3.4,7.4,6.8,15t7.7,17.1q4.3,9.5,9.9,21.7t13.4,29v-50q-5.2-11.6-11.2-24.4T721,169.1a40.941,40.941,0,0,0,18.4-14.4,38.2,38.2,0,0,0,7-22.8,40.126,40.126,0,0,0-3.5-16.6,43.507,43.507,0,0,0-9.5-13.6,44.479,44.479,0,0,0-13.9-9.1,42.9,42.9,0,0,0-16.7-3.3h-53V208.1h20.8Zm195-132q1.6,3.6,3.2,7.2t3.4,7.4V208.5H893V137.9q8.2,17.6,16.1,35.2T925,208.5h20.8V137.9q6.4,14,11,24.1t8.5,18.6q3.9,8.5,7.5,16.6t8.2,18q4.6,9.9,10.6,23t14.4,31.7v-50q-5.4-11.6-12.5-27.2T978.6,160q-7.8-17.1-15.7-34.5T948,92.9c-0.269-.666-0.5-1.231-0.7-1.7s-0.435-.966-0.7-1.5H925v68.8q-7.6-17-15.3-33.8T895,92.9q-4.8-10.6-9.9-21.8t-9.4-20.5q-4.3-9.3-7.1-15.4t-3-6.5V76.1ZM840.1,207.6a60.463,60.463,0,0,0,17.1-8.9V167.5a46.657,46.657,0,0,1-7.3,10.7,40.214,40.214,0,0,1-9.7,7.8,44.1,44.1,0,0,1-11.5,4.6,38.314,38.314,0,0,1-12.7.9h-0.4a2.2,2.2,0,0,1-1-.2,40.448,40.448,0,0,1-15.3-4.9,43.82,43.82,0,0,1-11.8-9.6,42.47,42.47,0,0,1-7.6-12.9,42.011,42.011,0,0,1,.5-30.9,44.514,44.514,0,0,1,8.9-13.7,42.614,42.614,0,0,1,13.4-9.5,39.906,39.906,0,0,1,16.7-3.5H822a41.588,41.588,0,0,1,21.2,7.6,43.573,43.573,0,0,1,14,16.4V99.5a61.621,61.621,0,0,0-17.4-9,64.151,64.151,0,0,0-20.4-3.2H817a14.8,14.8,0,0,0-2.4.2A63.343,63.343,0,0,0,773,107.2a61.489,61.489,0,0,0-12.2,19.1,59.817,59.817,0,0,0-4.4,22.8,58.532,58.532,0,0,0,5.2,24.6,64.316,64.316,0,0,0,13.9,19.8,62.867,62.867,0,0,0,20.3,13.1,59.915,59.915,0,0,0,24.6,4.3A66,66,0,0,0,840.1,207.6Zm175.5-68.3v69.2h68l13.6-20.2a0.584,0.584,0,0,0,.2-0.4h-61v-28H1073l13.8-20.6h-71.2Zm0-29.2h67.6q0.99-1.388,3.3-4.753,2.3-3.366,4.7-6.934l6-8.912h-81.6v20.6Zm40-49.6-13.8,22.2h10L1071,60.5h-15.4Zm77.59,148q7.41-16,11.6-25.2t6.5-14.1q2.31-4.9,3.1-6.6,0.81-1.7,1.2-2.7c0.27-.665.64-1.5,1.1-2.5s1.4-2.965,2.8-5.9,3.44-7.3,6.1-13.1,6.34-13.831,11-24.1q9.21,20,15.4,33.6,6.21,13.6,10.9,23.9,4.71,10.3,8.7,19.1,4.005,8.8,8.8,19.4t11.2,24.6q6.4,14,16,34.8v-50q-6-13-12.7-27.6t-13.2-28.9q-6.5-14.3-12.5-27.3t-10.6-23.1q-4.59-10.1-7.5-16.4-2.895-6.3-3.1-6.9h-22.8q-1.395,3-5.6,12.1t-9.8,21.3q-5.6,12.2-12,26-6.39,13.8-12,26-5.6,12.2-9.8,21.4t-5.6,12.2h22.8Zm123.4-54.7c1.74,0.069,3.57.135,5.5,0.2s3.74,0.1,5.4.1h3.3a19.856,19.856,0,0,1,13.3,4.672,15.265,15.265,0,0,1,5.5,12.228,15.071,15.071,0,0,1-5.6,12.328,20.208,20.208,0,0,1-13.2,4.572h-20.2q3.21,7.07,5.6,12.422t3.6,8.178h11a46.55,46.55,0,0,0,15.4-2.5,37.848,37.848,0,0,0,12.6-7.2,33.8,33.8,0,0,0,8.5-11.3,34.336,34.336,0,0,0,3.1-14.8,39.193,39.193,0,0,0-2.8-14.9,34.7,34.7,0,0,0-19.8-19.7,41.651,41.651,0,0,0-15.6-2.8h-14.4a13.263,13.263,0,0,1-9.1-3.472q-3.9-3.468-3.9-10.018a8.934,8.934,0,0,1,.6-3.175,9.59,9.59,0,0,1,4.4-6.05,15.04,15.04,0,0,1,8-2.085h28.4l0.2-.2q3.4-5.25,6.8-10.2t6.8-10.2h-42.2a48.867,48.867,0,0,0-9.4.9,35.411,35.411,0,0,0-8.7,2.9,27.469,27.469,0,0,0-7.4,5.3,26.98,26.98,0,0,0-5.5,8.3,33.138,33.138,0,0,0-2.7,13.8,34.464,34.464,0,0,0,3.2,14.1,31.364,31.364,0,0,0,9.6,11.7q6.51,5,16.5,6.6A16.128,16.128,0,0,0,1256.59,153.8Z"/>
</svg>
